<?xml version="1.0" encoding="UTF-8"?>
<svg width="18px" height="18px" viewBox="0 0 18 18" version="1.1" xmlns="http://www.w3.org/2000/svg" xmlns:xlink="http://www.w3.org/1999/xlink">
    <!-- Generator: Sketch 61.2 (89653) - https://sketch.com -->
    <title>Group</title>
    <desc>Created with Sketch.</desc>
    <g id="_Stock-Icons-&amp;-Vectors" stroke="none" stroke-width="1" fill="none" fill-rule="evenodd">
        <g id="5" transform="translate(-960.000000, -2199.000000)" fill="#000000">
            <g id="Group" transform="translate(960.000000, 2199.000000)">
                <path d="M17.5,18 C17.3720087,18 17.2440105,17.9510007 17.1460119,17.854002 L0.146247969,0.854238136 C-0.0487493229,0.658240858 -0.0487493229,0.342245247 0.146247969,0.146247969 C0.342245247,-0.0487493229 0.658240858,-0.0487493229 0.853238149,0.146247969 L17.853002,17.1460119 C18.0489993,17.3420091 18.0489993,17.6580047 17.853002,17.854002 C17.7560034,17.9510007 17.6280052,18 17.5,18" id="Fill-6972"></path>
                <path d="M0.500243052,18 C0.37224483,18 0.244246608,17.9510007 0.146247969,17.854002 C-0.0487493229,17.6580047 -0.0487493229,17.3420091 0.146247969,17.1460119 L17.1460119,0.146247969 C17.3420091,-0.0487493229 17.6580047,-0.0487493229 17.853002,0.146247969 C18.0489993,0.342245247 18.0489993,0.658240858 17.853002,0.854238136 L0.853238149,17.854002 C0.756239497,17.9510007 0.628241274,18 0.500243052,18" id="Fill-6973"></path>
            </g>
        </g>
    </g>
</svg>