<?xml version="1.0" encoding="UTF-8"?>
<svg width="41px" height="37px" viewBox="0 0 41 37" version="1.1" xmlns="http://www.w3.org/2000/svg" xmlns:xlink="http://www.w3.org/1999/xlink">
    <!-- Generator: Sketch 50.2 (55047) - http://www.bohemiancoding.com/sketch -->
    <title>Shape</title>
    <desc>Created with Sketch.</desc>
    <defs></defs>
    <g id="Page-1" stroke="none" stroke-width="1" fill="none" fill-rule="evenodd">
        <g id="arrow-right" fill="#4A4A4A" fill-rule="nonzero">
            <g id="arrow-left" transform="translate(20.500000, 19.000000) scale(-1, 1) translate(-20.500000, -19.000000) ">
                <g id="arrow-right" transform="translate(20.500000, 19.000000) scale(-1, 1) translate(-20.500000, -19.000000) ">
                    <g id="Group" transform="translate(0.000000, 0.197930)">
                        <path d="M24.46,0.296 C23.907,0.315 23.476,0.776 23.493,1.329 C23.501,1.564 23.593,1.79 23.751,1.966 L37.284,17.306 L1.503,17.306 C0.95,17.294 0.493,17.732 0.482,18.285 C0.471,18.838 0.908,19.295 1.461,19.306 C1.475,19.306 1.489,19.306 1.504,19.306 L37.285,19.306 L23.752,34.646 C23.387,35.062 23.43,35.695 23.846,36.06 C24.262,36.425 24.895,36.382 25.26,35.966 L40.26,18.966 C40.631,18.557 40.6,17.925 40.192,17.554 C40.178,17.54 40.164,17.529 40.149,17.517 L25.26,0.644 C25.06,0.411 24.766,0.284 24.46,0.296 Z" id="Shape"></path>
                    </g>
                </g>
            </g>
        </g>
    </g>
</svg>