<?xml version="1.0" encoding="UTF-8"?>
<svg width="60px" height="60px" viewBox="0 0 60 60" version="1.1" xmlns="http://www.w3.org/2000/svg" xmlns:xlink="http://www.w3.org/1999/xlink">
    <!-- Generator: Sketch 50.2 (55047) - http://www.bohemiancoding.com/sketch -->
    <title>Arrow</title>
    <desc>Created with Sketch.</desc>
    <defs></defs>
    <g id="Arrow" stroke="none" stroke-width="1" fill="none" fill-rule="evenodd">
        <g id="Group" transform="translate(2.000000, 2.000000)" fill="#000000" fill-rule="nonzero">
            <path d="M37,29.9 L17.8,41 C16.4,41.8 14.6,40.8 14.6,39.1 L14.6,16.9 C14.6,15.2 16.4,14.2 17.8,15 L37,26.1 C38.4,27 38.4,29 37,29.9 Z" id="Shape" transform="translate(26.325000, 28.000000) scale(-1, -1) translate(-26.325000, -28.000000) "></path>
            <path d="M28,56 C12.6,56 0,43.4 0,28 C0,12.6 12.6,0 28,0 C43.4,0 56,12.6 56,28 C56,43.4 43.4,56 28,56 Z M28,3 C14.2,3 3,14.2 3,28 C3,41.8 14.2,53 28,53 C41.8,53 53,41.8 53,28 C53,14.2 41.8,3 28,3 Z" id="Shape" transform="translate(28.000000, 28.000000) scale(-1, 1) translate(-28.000000, -28.000000) "></path>
        </g>
    </g>
</svg>