<?xml version="1.0" encoding="UTF-8"?>
<svg width="100px" height="100px" viewBox="0 0 100 100" version="1.1" xmlns="http://www.w3.org/2000/svg" xmlns:xlink="http://www.w3.org/1999/xlink">
    <!-- Generator: Sketch 50.2 (55047) - http://www.bohemiancoding.com/sketch -->
    <title>noun_left arrow_1614481</title>
    <desc>Created with Sketch.</desc>
    <defs></defs>
    <g id="section-banner" stroke="none" stroke-width="1" fill="none" fill-rule="evenodd">
        <g id="noun_left-arrow_1614481" fill="#000000" fill-rule="nonzero">
            <path d="M50,1.36782946e-15 C75.7739034,-0.129162409 97.4229009,19.3549354 100,45 L62.65,45 L62.65,35 C62.6618131,32.9686746 61.4434811,31.1320998 59.5674075,30.3531452 C57.6913339,29.5741907 55.5304523,30.0077003 54.1,31.45 L39.1,46.45 C37.161382,48.4001873 37.161382,51.5498127 39.1,53.5 L54.1,68.5 C55.5240456,69.9358069 57.6727598,70.3724515 59.5442618,69.6063395 C61.4157638,68.8402276 62.6415211,67.0222204 62.65,65 L62.65,55 L100,55 C97.3064597,81.7969852 73.8721623,101.645859 46.9972206,99.8934085 C20.1222789,98.1409579 -0.535940648,75.4169164 0.273265857,48.4970583 C1.08247236,21.5772003 23.0683209,0.135032457 50,5.80872156e-15 Z" id="Shape"></path>
        </g>
    </g>
</svg>