<svg xmlns:dc="http://purl.org/dc/elements/1.1/" xmlns:cc="http://creativecommons.org/ns#" xmlns:rdf="http://www.w3.org/1999/02/22-rdf-syntax-ns#" xmlns:svg="http://www.w3.org/2000/svg" xmlns="http://www.w3.org/2000/svg" version="1.1" viewBox="0 0 100 125" x="0px" y="0px"><g transform="translate(0,-952.36216)"><path d="m 20,959.86213 a 2.50025,2.50025 0 0 0 -2.5,2.5 l 0,50.00007 0,30 a 2.50025,2.50025 0 0 0 2.5,2.5 l 60,0 a 2.50025,2.50025 0 0 0 2.5,-2.5 l 0,-60.00007 a 2.50025,2.50025 0 0 0 -0.73242,-1.7676 l -20,-20 A 2.50025,2.50025 0 0 0 60,959.86213 l -40,0 z m 2.5,5 35,0 0,17.5 a 2.50025,2.50025 0 0 0 2.5,2.5 l 17.5,0 0,55.00007 -55,0 0,-27.5 0,-47.50007 z m 40,3.5352 11.46289,11.4648 -11.46289,0 0,-11.4648 z m -32.48242,21.4648 a 2.50025,2.50025 0 1 0 0,5 l 40,0 a 2.50025,2.50025 0 1 0 0,-5 l -40,0 z m 0,10 a 2.50025,2.50025 0 1 0 0,4.99997 l 40,0 a 2.50025,2.50025 0 1 0 0,-4.99997 l -40,0 z m 0,10.00007 a 2.50025,2.50025 0 1 0 0,5 l 40,0 a 2.50025,2.50025 0 1 0 0,-5 l -40,0 z m 0,10 a 2.50025,2.50025 0 1 0 0,5 l 40,0 a 2.50025,2.50025 0 1 0 0,-5 l -40,0 z m 0,10 a 2.50025,2.50025 0 1 0 0,5 l 40,0 a 2.50025,2.50025 0 1 0 0,-5 l -40,0 z" style="color:black;font-style:normal;font-variant:normal;font-weight:normal;font-stretch:normal;font-size:medium;line-height:normal;font-family:sans-serif;text-indent:0;text-align:start;text-decoration:none;text-decoration-line:none;text-decoration-style:solid;text-decoration-color:black;letter-spacing:normal;word-spacing:normal;text-transform:none;direction:ltr;block-progression:tb;writing-mode:lr-tb;baseline-shift:baseline;text-anchor:start;white-space:normal;clip-rule:nonzero;display:inline;overflow:visible;visibility:visible;opacity:1;isolation:auto;mix-blend-mode:normal;color-interpolation:sRGB;color-interpolation-filters:linearRGB;solid-color:black;solid-opacity:1;fill:black;fill-opacity:1;fill-rule:evenodd;stroke:none;stroke-width:5;stroke-linecap:round;stroke-linejoin:round;stroke-miterlimit:4;stroke-dasharray:none;stroke-dashoffset:0;stroke-opacity:1;marker:none;color-rendering:auto;image-rendering:auto;shape-rendering:auto;text-rendering:auto;enable-background:accumulate"/></g><text x="0" y="115" fill="#000000" font-size="5px" font-weight="bold" font-family="'Helvetica Neue', Helvetica, Arial-Unicode, Arial, Sans-serif">Created by Ribbla Team</text><text x="0" y="120" fill="#000000" font-size="5px" font-weight="bold" font-family="'Helvetica Neue', Helvetica, Arial-Unicode, Arial, Sans-serif">from the Noun Project</text></svg>