<?xml version="1.0" encoding="UTF-8"?>
<svg width="24px" height="20px" viewBox="0 0 24 20" version="1.1" xmlns="http://www.w3.org/2000/svg" xmlns:xlink="http://www.w3.org/1999/xlink">
    <!-- Generator: Sketch 56.3 (81716) - https://sketch.com -->
    <title>Fill 384</title>
    <desc>Created with Sketch.</desc>
    <g id="Symbols" stroke="none" stroke-width="1" fill="none" fill-rule="evenodd">
        <g id="Artboard" transform="translate(-15.000000, -29.000000)" fill="#002855">
            <path d="M33.771,39.42 L26.771,43.92 C26.688,43.97 26.594,44 26.5,44 C26.417,44 26.335,43.98 26.26,43.94 C26.1,43.85 26,43.68 26,43.5 L26,41.2 L21.771,43.92 C21.616,44.02 21.421,44.03 21.26,43.94 C21.1,43.85 21,43.68 21,43.5 L21,34.5 C21,34.32 21.1,34.15 21.26,34.06 C21.421,33.97 21.616,33.98 21.771,34.08 L26,36.8 L26,34.5 C26,34.32 26.1,34.15 26.26,34.06 C26.42,33.97 26.617,33.98 26.771,34.08 L33.771,38.58 C33.914,38.67 34,38.83 34,39 C34,39.17 33.914,39.33 33.771,39.42 L33.771,39.42 Z M33.5,29 L20.5,29 C17.467,29 15,31.47 15,34.5 L15,43.5 C15,46.53 17.467,49 20.5,49 L33.5,49 C36.533,49 39,46.53 39,43.5 L39,34.5 C39,31.47 36.533,29 33.5,29 L33.5,29 Z" id="Fill-384"></path>
        </g>
    </g>
</svg>