<?xml version="1.0" encoding="UTF-8"?>
<svg width="24px" height="20px" viewBox="0 0 24 20" version="1.1" xmlns="http://www.w3.org/2000/svg" xmlns:xlink="http://www.w3.org/1999/xlink">
    <!-- Generator: Sketch 56.3 (81716) - https://sketch.com -->
    <title>Fill 383</title>
    <desc>Created with Sketch.</desc>
    <g id="Symbols" stroke="none" stroke-width="1" fill="none" fill-rule="evenodd">
        <g id="Artboard" transform="translate(-63.000000, -29.000000)" fill="#002855">
            <path d="M81,43.5 C81,43.68 80.9,43.85 80.74,43.94 C80.665,43.98 80.583,44 80.5,44 C80.406,44 80.312,43.97 80.229,43.92 L76,41.2 L76,43.5 C76,43.68 75.9,43.85 75.74,43.94 C75.578,44.03 75.383,44.02 75.229,43.92 L68.229,39.42 C68.086,39.33 68,39.17 68,39 C68,38.83 68.086,38.67 68.229,38.58 L75.229,34.08 C75.383,33.98 75.578,33.97 75.74,34.06 C75.9,34.15 76,34.32 76,34.5 L76,36.8 L80.229,34.08 C80.382,33.98 80.579,33.97 80.74,34.06 C80.9,34.15 81,34.32 81,34.5 L81,43.5 L81,43.5 Z M81.5,29 L68.5,29 C65.467,29 63,31.47 63,34.5 L63,43.5 C63,46.53 65.467,49 68.5,49 L81.5,49 C84.533,49 87,46.53 87,43.5 L87,34.5 C87,31.47 84.533,29 81.5,29 L81.5,29 Z" id="Fill-383"></path>
        </g>
    </g>
</svg>