<?xml version="1.0" encoding="UTF-8"?>
<svg width="58px" height="31px" viewBox="0 0 58 31" version="1.1" xmlns="http://www.w3.org/2000/svg" xmlns:xlink="http://www.w3.org/1999/xlink">
    <!-- Generator: Sketch 58 (84663) - https://sketch.com -->
    <title>Fill 3058 + Fill 3059</title>
    <desc>Created with Sketch.</desc>
    <g id="Page-1" stroke="none" stroke-width="1" fill="none" fill-rule="evenodd">
        <g id="Icons-Mind---60-Px" transform="translate(-765.000000, -2716.000000)" fill="#0B0B0A">
            <g id="Fill-3058-+-Fill-3059" transform="translate(764.000000, 2716.000000)">
                <path d="M47.924,30.422 C47.72,30.422 47.516,30.34 47.338,30.22 C46.89,29.9 46.792,29.262 47.118,28.82 L56.69,15.66 L47.118,2.5 C46.792,2.06 46.89,1.422 47.338,1.102 C47.786,0.782 48.41,0.88 48.734,1.32 L58.734,15.08 C58.99,15.422 58.99,15.9 58.734,16.242 L48.734,30 C48.54,30.262 48.234,30.422 47.924,30.422" id="Fill-3058"></path>
                <path d="M58,16.66 L2,16.66 C1.448,16.66 1,16.22 1,15.66 C1,15.102 1.448,14.66 2,14.66 L58,14.66 C58.552,14.66 59,15.102 59,15.66 C59,16.22 58.552,16.66 58,16.66" id="Fill-3059"></path>
            </g>
        </g>
    </g>
</svg>