<?xml version="1.0" encoding="UTF-8"?>
<svg width="18px" height="24px" viewBox="0 0 18 24" version="1.1" xmlns="http://www.w3.org/2000/svg" xmlns:xlink="http://www.w3.org/1999/xlink">
    <!-- Generator: Sketch 59 (86127) - https://sketch.com -->
    <title>Group 88</title>
    <desc>Created with Sketch.</desc>
    <g id="Icon54" stroke="none" stroke-width="1" fill="none" fill-rule="evenodd" stroke-linecap="round" stroke-linejoin="round">
        <g id="1" transform="translate(-885.000000, -2835.000000)" stroke="#000000">
            <g id="File" transform="translate(690.000000, 2835.000000)">
                <g id="Group-56" transform="translate(195.000000, 0.000000)">
                    <g id="Group-79" transform="translate(0.500000, 0.500000)">
                        <g id="Group-88">
                            <polygon id="Stroke-50" points="17 23 0 23 0 6 6 0 17 0"></polygon>
                            <polyline id="Stroke-52" points="0 6 6 6 6 0"></polyline>
                            <path d="M8,8 C6.625,8 6.422,11.422 9,14 C11.578,16.578 15,17.969 15,16.5 C15,15.031 11.125,15.344 8.5,16.5 C5.875,17.656 0.333,20.375 2.5,21 C4.811,21.667 6.656,16.938 7.5,15 C8.344,13.062 9.719,8.031 8,8 L8,8 Z" id="Stroke-54"></path>
                        </g>
                    </g>
                </g>
            </g>
        </g>
    </g>
</svg>